<?xml version="1.0" encoding="UTF-8"?>
<!DOCTYPE svg PUBLIC "-//W3C//DTD SVG 1.1//EN" "http://www.w3.org/Graphics/SVG/1.1/DTD/svg11.dtd">
<!-- Creator: CorelDRAW X7 -->
<svg xmlns="http://www.w3.org/2000/svg" xml:space="preserve" width="166.566mm" height="70.0002mm" version="1.1" style="shape-rendering:geometricPrecision; text-rendering:geometricPrecision; image-rendering:optimizeQuality; fill-rule:evenodd; clip-rule:evenodd"
viewBox="0 0 16613 6982"
 xmlns:xlink="http://www.w3.org/1999/xlink">
 <defs>
  <style type="text/css">
   <![CDATA[
    .fil5 {fill:none}
    .fil1 {fill:#FEFEFE}
    .fil0 {fill:#0774A7}
    .fil3 {fill:#00A0E3}
    .fil2 {fill:#00A0E3}
    .fil4 {fill:#1C1B17}
   ]]>
  </style>
     <mask id="id0">
  <linearGradient id="id1" gradientUnits="userSpaceOnUse" x1="5253.16" y1="3294.63" x2="3805.61" y2="3734.16">
   <stop offset="0" style="stop-opacity:1; stop-color:white"/>
   <stop offset="0.258824" style="stop-opacity:0; stop-color:white"/>
   <stop offset="1" style="stop-opacity:0; stop-color:white"/>
  </linearGradient>
      <rect style="fill:url(#id1)" x="3444" y="537" width="2170" height="5955"/>
     </mask>
     <clipPath id="id2">
      <rect x="8805" y="2122" width="287" height="287"/>
     </clipPath>
 </defs>
 <g id="Layer_x0020_1">
  <metadata id="CorelCorpID_0Corel-Layer"/>
  <g id="_321519904">
   <g>
    <rect class="fil0" width="6982" height="6982" rx="793" ry="793"/>
    <circle class="fil1" cx="5189" cy="1693" r="415"/>
    <polygon class="fil2" points="1379,6482 5603,6482 3422,457 "/>
    <g>
     <polygon class="fil1" points="2025,6982 4957,6982 3443,2800 "/>
     <polygon class="fil3" points="2194,6482 3443,2800 4776,6482 5603,6482 3422,457 1379,6482 "/>
    </g>
    <polygon class="fil1" style="mask:url(#id0)" points="5276,1287 5605,1693 5603,6482 3454,547 "/>
    <circle class="fil1" cx="5189" cy="1693" r="415"/>
   </g>
   <g>
    <polygon class="fil0" points="9300,4403 10000,2337 10748,4403 11212,4403 9988,1023 8842,4403 "/>
    <polygon class="fil0" points="11096,2235 11538,3538 12009,2235 12302,2235 11530,4367 10808,2235 "/>
    <polygon class="fil0" points="12192,4367 12645,3030 13129,4367 13429,4367 12637,2179 11896,4367 "/>
    <polygon class="fil0" points="14548,4331 15001,2994 15485,4331 15785,4331 14993,2144 14252,4331 "/>
    <rect class="fil0" transform="matrix(1.16351E-014 -0.664797 0.746847 2.99321E-014 13066.4 2483.45)" width="457" height="1935"/>
    <rect class="fil0" x="13637" y="2179" width="304" height="2187"/>
    <path class="fil0" d="M15760 2481l240 0c170,0 308,139 308,308 0,170 -138,309 -308,309l-153 0 -155 0 108 301 47 0 153 0c335,0 610,-274 610,-610 0,-335 -275,-609 -610,-609l-240 0 -304 0 0 301 304 0z"/>
    <path class="fil4" d="M8842 5639l0 -1089 145 0 0 1089 -145 0zm382 0l0 -790 120 0 0 112c25,-38 58,-70 99,-93 41,-24 88,-35 140,-35 59,0 106,12 144,36 37,24 63,58 79,102 63,-92 144,-138 244,-138 79,0 140,21 182,65 42,43 63,110 63,200l0 541 -134 0 0 -497c0,-53 -4,-92 -13,-115 -8,-24 -24,-43 -47,-57 -23,-15 -50,-22 -81,-22 -55,0 -102,19 -138,56 -37,37 -55,96 -55,177l0 458 -134 0 0 -512c0,-60 -11,-104 -33,-134 -22,-30 -58,-45 -107,-45 -38,0 -72,10 -104,30 -32,20 -55,49 -70,87 -14,38 -21,93 -21,165l0 409 -134 0zm1784 -99c-50,43 -98,72 -144,90 -46,17 -95,26 -148,26 -86,0 -153,-21 -200,-63 -47,-42 -70,-96 -70,-162 0,-39 9,-74 26,-106 18,-32 41,-57 70,-77 28,-19 60,-34 96,-43 27,-7 66,-14 119,-20 108,-13 188,-29 239,-46 1,-19 1,-30 1,-35 0,-54 -13,-93 -38,-115 -34,-30 -85,-45 -153,-45 -63,0 -110,11 -139,33 -31,22 -53,61 -67,117l-131 -18c12,-56 31,-101 59,-136 27,-34 67,-61 118,-79 52,-19 112,-28 180,-28 68,0 123,8 165,24 42,16 73,35 93,59 20,25 34,55 42,92 4,23 7,64 7,123l0 177c0,124 2,203 8,236 5,33 16,65 33,95l-140 0c-14,-28 -22,-61 -26,-99zm-11 -296c-49,19 -122,36 -219,50 -55,8 -94,17 -117,27 -23,9 -41,24 -53,43 -12,19 -19,40 -19,63 0,35 14,65 41,89 27,23 66,35 118,35 52,0 98,-11 138,-34 40,-22 70,-53 89,-91 14,-31 21,-75 21,-134l1 -48zm317 461l129 18c5,40 21,69 45,88 34,24 79,37 137,37 62,0 109,-13 143,-37 34,-25 57,-60 69,-104 7,-27 10,-84 9,-171 -58,69 -131,103 -218,103 -109,0 -193,-39 -252,-117 -60,-78 -90,-172 -90,-281 0,-76 14,-145 41,-209 27,-64 67,-113 119,-147 51,-35 112,-52 182,-52 93,0 170,38 230,114l0 -98 124 0 0 683c0,123 -13,210 -38,261 -25,51 -64,92 -118,121 -55,30 -121,45 -201,45 -94,0 -170,-21 -227,-63 -58,-43 -86,-106 -84,-191zm109 -474c0,103 21,179 62,226 41,47 93,71 155,71 61,0 113,-23 155,-71 41,-47 62,-121 62,-222 0,-96 -22,-169 -64,-218 -43,-49 -95,-73 -155,-73 -60,0 -111,24 -152,72 -42,48 -63,120 -63,215zm1300 153l139 18c-22,80 -62,143 -121,187 -59,45 -134,67 -225,67 -115,0 -207,-35 -274,-106 -68,-71 -101,-171 -101,-299 0,-132 34,-235 102,-308 68,-74 157,-110 265,-110 106,0 192,35 258,107 67,72 101,173 101,303 0,8 -1,20 -1,36l-588 0c5,86 29,153 73,199 44,45 99,69 165,69 49,0 91,-13 125,-39 35,-26 62,-68 82,-124zm-438 -215l440 0c-6,-66 -23,-116 -50,-149 -43,-52 -98,-78 -166,-78 -61,0 -113,21 -155,62 -41,41 -64,96 -69,165zm1496 470l-421 -1089 156 0 284 792c22,63 41,122 57,178 16,-60 36,-119 58,-178l294 -792 147 0 -425 1089 -150 0zm661 -937l0 -152 134 0 0 152 -134 0zm0 937l0 -790 134 0 0 790 -134 0zm877 -255l138 18c-21,80 -62,143 -121,187 -58,45 -134,67 -225,67 -115,0 -207,-35 -274,-106 -67,-71 -101,-171 -101,-299 0,-132 34,-235 102,-308 68,-74 157,-110 266,-110 105,0 191,35 258,107 66,72 100,173 100,303 0,8 -1,20 -1,36l-588 0c5,86 29,153 73,199 44,45 99,69 165,69 49,0 91,-13 125,-39 35,-26 62,-68 83,-124zm-439 -215l440 0c-6,-66 -23,-116 -50,-149 -43,-52 -98,-78 -166,-78 -61,0 -113,21 -154,62 -42,41 -65,96 -70,165zm888 470l-238 -790 140 0 126 456 44 170c2,-8 16,-63 41,-163l125 -463 138 0 119 459 38 150 46 -152 136 -457 130 0 -247 790 -139 0 -125 -472 -32 -135 -160 607 -142 0z"/>
    <path class="fil0" d="M16097 3391c181,-29 336,-139 427,-291 54,-91 86,-197 86,-311 0,-112 -31,-218 -85,-308 -106,-180 -302,-301 -525,-301l-551 0 -102 0 109 301 544 0c170,0 308,139 308,308 0,170 -138,309 -308,309l-9 0 106 293z"/>
    <polygon class="fil0" points="15798,3393 16137,4331 16438,4331 15991,3098 "/>
    <g style="clip-path:url(#id2)">
    </g>
    <rect class="fil5" x="8840" y="2158" width="217" height="217"/>
   </g>
  </g>
 </g>
</svg>
