<?xml version="1.0" encoding="UTF-8"?>
<!DOCTYPE svg PUBLIC "-//W3C//DTD SVG 1.1//EN" "http://www.w3.org/Graphics/SVG/1.1/DTD/svg11.dtd">
<!-- Creator: CorelDRAW X7 -->
<svg xmlns="http://www.w3.org/2000/svg" xml:space="preserve" width="70mm" height="118.689mm" version="1.1" style="shape-rendering:geometricPrecision; text-rendering:geometricPrecision; image-rendering:optimizeQuality; fill-rule:evenodd; clip-rule:evenodd"
viewBox="0 0 2946 4995"
 xmlns:xlink="http://www.w3.org/1999/xlink">
 <defs>
  <style type="text/css">
   <![CDATA[
    .fil5 {fill:none}
    .fil1 {fill:#FEFEFE}
    .fil0 {fill:#0774A7}
    .fil3 {fill:#00A0E3}
    .fil2 {fill:#00A0E3}
    .fil4 {fill:#1C1B17}
   ]]>
  </style>
     <mask id="id0">
  <linearGradient id="id1" gradientUnits="userSpaceOnUse" x1="2216.49" y1="1390.12" x2="1605.72" y2="1575.57">
   <stop offset="0" style="stop-opacity:1; stop-color:white"/>
   <stop offset="0.258824" style="stop-opacity:0; stop-color:white"/>
   <stop offset="1" style="stop-opacity:0; stop-color:white"/>
  </linearGradient>
      <rect style="fill:url(#id1)" x="1453" y="226" width="916" height="2513"/>
     </mask>
     <clipPath id="id2">
      <rect x="-15" y="3540" width="112" height="112"/>
     </clipPath>
 </defs>
 <g id="Layer_x0020_1">
  <metadata id="CorelCorpID_0Corel-Layer"/>
  <g id="_321521128">
   <g>
    <rect class="fil0" width="2946" height="2946" rx="335" ry="335"/>
    <circle class="fil1" cx="2190" cy="714" r="175"/>
    <polygon class="fil2" points="582,2735 2364,2735 1444,193 "/>
    <g>
     <polygon class="fil1" points="854,2946 2091,2946 1453,1182 "/>
     <polygon class="fil3" points="926,2735 1453,1182 2015,2735 2364,2735 1444,193 582,2735 "/>
    </g>
    <polygon class="fil1" style="mask:url(#id0)" points="2226,543 2365,714 2364,2735 1457,231 "/>
    <circle class="fil1" cx="2190" cy="714" r="175"/>
   </g>
   <g>
    <polygon class="fil0" points="174,4405 440,3623 723,4405 899,4405 435,3124 1,4405 "/>
    <polygon class="fil0" points="855,3584 1022,4077 1201,3584 1312,3584 1020,4391 746,3584 "/>
    <polygon class="fil0" points="1270,4391 1442,3885 1625,4391 1739,4391 1439,3563 1158,4391 "/>
    <polygon class="fil0" points="2163,4378 2335,3872 2518,4378 2632,4378 2332,3549 2051,4378 "/>
    <rect class="fil0" transform="matrix(1.04491E-014 -0.597034 0.670721 2.68811E-014 1601.58 3677.91)" width="193" height="817"/>
    <rect class="fil0" x="1818" y="3563" width="115" height="829"/>
    <path class="fil0" d="M2622 3677l91 0c64,0 117,53 117,117 0,64 -53,117 -117,117l-58 0 -59 0 41 114 18 0 58 0c127,0 231,-104 231,-231 0,-127 -104,-231 -231,-231l-91 0 -115 0 0 114 115 0z"/>
    <path class="fil4" d="M1 4874l0 -413 55 0 0 413 -55 0zm145 0l0 -300 45 0 0 43c9,-15 22,-27 38,-36 15,-8 33,-13 53,-13 22,0 40,5 54,14 14,9 24,22 30,38 24,-34 55,-52 93,-52 30,0 52,8 68,25 17,16 25,41 25,76l0 205 -51 0 0 -189c0,-20 -2,-34 -5,-43 -3,-9 -9,-16 -18,-22 -9,-5 -19,-8 -31,-8 -21,0 -38,7 -52,21 -14,14 -21,36 -21,67l0 174 -51 0 0 -194c0,-23 -4,-40 -12,-51 -8,-11 -22,-17 -41,-17 -14,0 -27,4 -39,11 -12,8 -21,19 -27,33 -5,15 -8,35 -8,63l0 155 -50 0zm675 -38c-18,16 -37,28 -54,34 -17,7 -36,10 -56,10 -33,0 -58,-8 -76,-24 -17,-16 -26,-36 -26,-61 0,-15 3,-28 10,-40 6,-12 15,-22 26,-29 11,-8 23,-13 36,-17 10,-3 26,-5 46,-8 41,-4 71,-10 90,-17 0,-7 0,-11 0,-13 0,-21 -4,-35 -14,-44 -13,-11 -32,-17 -58,-17 -24,0 -41,4 -53,13 -11,8 -20,23 -25,44l-50 -7c5,-21 12,-38 23,-51 10,-13 25,-23 45,-30 19,-7 42,-11 68,-11 25,0 46,3 62,9 16,6 28,14 35,23 8,9 13,20 16,34 2,9 3,25 3,47l0 67c0,47 1,77 3,90 2,12 6,24 12,36l-53 0c-5,-11 -8,-23 -10,-38zm-4 -112c-18,7 -46,14 -83,19 -21,3 -35,6 -44,10 -9,4 -15,9 -20,16 -5,7 -7,15 -7,24 0,14 5,25 15,34 11,9 26,13 45,13 20,0 37,-4 52,-12 16,-9 27,-21 34,-35 5,-12 8,-29 8,-51l0 -18zm120 175l49 6c2,16 8,27 18,34 12,9 29,14 51,14 24,0 42,-5 55,-14 12,-10 21,-23 26,-40 2,-10 3,-31 3,-64 -22,26 -50,39 -83,39 -41,0 -73,-15 -95,-45 -23,-29 -34,-65 -34,-106 0,-29 5,-55 15,-79 11,-24 26,-43 45,-56 20,-13 43,-20 70,-20 35,0 64,15 87,43l0 -37 47 0 0 259c0,47 -5,80 -15,99 -9,19 -24,35 -45,46 -20,11 -45,17 -75,17 -36,0 -65,-8 -87,-24 -22,-16 -32,-40 -32,-72zm42 -180c0,39 8,68 23,86 16,18 35,27 59,27 23,0 43,-9 59,-27 15,-18 23,-46 23,-84 0,-37 -8,-64 -24,-83 -16,-19 -36,-28 -59,-28 -22,0 -42,9 -57,28 -16,18 -24,45 -24,81zm493 58l52 7c-8,30 -23,54 -46,71 -22,17 -50,25 -85,25 -44,0 -78,-13 -104,-40 -25,-27 -38,-65 -38,-113 0,-51 13,-90 38,-117 26,-28 60,-42 101,-42 40,0 73,14 98,41 25,27 38,65 38,115 0,3 0,7 0,13l-223 0c2,33 11,58 28,75 16,18 37,27 62,27 18,0 34,-5 47,-15 14,-10 24,-26 32,-47zm-166 -81l166 0c-2,-26 -8,-44 -19,-57 -16,-20 -37,-29 -63,-29 -23,0 -42,7 -58,23 -16,16 -25,36 -26,63zm566 178l-159 -413 59 0 107 300c9,24 16,46 22,67 6,-22 14,-45 22,-67l112 -300 55 0 -161 413 -57 0zm251 -355l0 -58 50 0 0 58 -50 0zm0 355l0 -300 50 0 0 300 -50 0zm332 -97l52 7c-8,30 -23,54 -45,71 -23,17 -51,25 -86,25 -43,0 -78,-13 -104,-40 -25,-27 -38,-65 -38,-113 0,-51 13,-90 39,-117 26,-28 59,-42 101,-42 39,0 72,14 97,41 26,27 38,65 38,115 0,3 0,7 0,13l-223 0c2,33 11,58 28,75 17,18 37,27 62,27 19,0 35,-5 48,-15 13,-10 23,-26 31,-47zm-166 -81l167 0c-3,-26 -9,-44 -20,-57 -16,-20 -37,-29 -62,-29 -23,0 -43,7 -59,23 -16,16 -24,36 -26,63zm336 178l-90 -300 53 0 48 173 17 64c0,-3 6,-23 15,-61l48 -176 52 0 45 174 14 57 18 -58 51 -173 50 0 -94 300 -53 0 -47 -179 -12 -52 -61 231 -54 0z"/>
    <path class="fil0" d="M2750 4022c69,-11 127,-53 162,-110 20,-35 32,-75 32,-118 0,-43 -11,-83 -32,-117 -40,-68 -114,-114 -199,-114l-209 0 -38 0 41 114 206 0c64,0 117,53 117,117 0,64 -53,117 -117,117l-3 0 40 111z"/>
    <polygon class="fil0" points="2637,4022 2765,4378 2879,4378 2710,3911 "/>
    <g style="clip-path:url(#id2)">
    </g>
    <rect class="fil5" y="3554" width="82.1477" height="82.1477"/>
   </g>
  </g>
 </g>
</svg>
